<svg xmlns="http://www.w3.org/2000/svg" xmlns:xlink="http://www.w3.org/1999/xlink" width="500" zoomAndPan="magnify" viewBox="0 0 375 374.999991" height="500" preserveAspectRatio="xMidYMid meet" version="1.2"><defs><clipPath id="c2ca4d7001"><path d="M 3.597656 118.058594 L 371.050781 118.058594 L 371.050781 242.820312 L 3.597656 242.820312 Z M 3.597656 118.058594 "/></clipPath><clipPath id="4b3e520731"><path d="M 3.597656 118.058594 L 371.097656 118.058594 L 371.097656 242.558594 L 3.597656 242.558594 Z M 3.597656 118.058594 "/></clipPath></defs><g id="7785236478"><g clip-rule="nonzero" clip-path="url(#c2ca4d7001)"><path style=" stroke:none;fill-rule:nonzero;fill:#000000;fill-opacity:1;" d="M 3.597656 118.058594 L 371.058594 118.058594 L 371.058594 242.820312 L 3.597656 242.820312 Z M 3.597656 118.058594 "/></g><g clip-rule="nonzero" clip-path="url(#4b3e520731)"><path style="fill:none;stroke-width:8;stroke-linecap:butt;stroke-linejoin:miter;stroke:#ffffff;stroke-opacity:1;stroke-miterlimit:4;" d="M -0.000984544 -0.000651075 L 489.920895 -0.000651075 L 489.920895 166.343109 L -0.000984544 166.343109 Z M -0.000984544 -0.000651075 " transform="matrix(0.75012,0,0,0.74845,3.598395,118.059081)"/></g><g style="fill:#ffffff;fill-opacity:1;"><g transform="translate(24.00222, 204.81926)"><path style="stroke:none" d="M 39.65625 -61.28125 C 45.5625 -61.28125 50.21875 -59.953125 53.625 -57.296875 C 57.039062 -54.640625 58.75 -50.738281 58.75 -45.59375 C 58.75 -41.53125 57.851562 -37.359375 56.0625 -33.078125 C 54.28125 -28.796875 51.382812 -25.570312 47.375 -23.40625 C 43.363281 -21.238281 38.867188 -20.207031 33.890625 -20.3125 L 24.375 -20.3125 L 21.125 0 L 5.203125 0 L 14.875 -61.28125 Z M 28.765625 -48.4375 L 26.40625 -33.15625 L 30.3125 -33.15625 C 34.8125 -33.15625 37.859375 -33.96875 39.453125 -35.59375 C 41.054688 -37.21875 41.859375 -39.65625 41.859375 -42.90625 C 41.859375 -44.914062 41.191406 -46.335938 39.859375 -47.171875 C 38.535156 -48.015625 36.410156 -48.4375 33.484375 -48.4375 Z M 28.765625 -48.4375 "/></g></g><g style="fill:#ffffff;fill-opacity:1;"><g transform="translate(69.099751, 204.81926)"><path style="stroke:none" d="M 50.296875 -61.28125 L 63.71875 0 L 46.734375 0 L 44.453125 -10.640625 L 22.515625 -10.640625 L 16.578125 0 L -0.328125 0 L 32.90625 -61.28125 Z M 28.84375 -22.828125 L 42.09375 -22.828125 L 38.6875 -42.34375 L 38.515625 -42.34375 Z M 28.84375 -22.828125 "/></g></g><g style="fill:#ffffff;fill-opacity:1;"><g transform="translate(123.948285, 204.81926)"><path style="stroke:none" d="M 39.09375 -61.28125 C 44.613281 -61.28125 49.039062 -59.976562 52.375 -57.375 C 55.707031 -54.769531 57.375 -51.03125 57.375 -46.15625 C 57.375 -40.957031 55.828125 -36.363281 52.734375 -32.375 C 49.648438 -28.394531 45.695312 -25.972656 40.875 -25.109375 L 56.15625 0 L 36.328125 0 L 25.03125 -23.5625 L 24.875 -23.5625 L 21.125 0 L 5.203125 0 L 14.875 -61.28125 Z M 26.5 -33.8125 L 28.6875 -33.8125 C 32.425781 -33.8125 35.320312 -34.59375 37.375 -36.15625 C 39.4375 -37.726562 40.46875 -40.035156 40.46875 -43.078125 C 40.46875 -47.078125 37.164062 -49.078125 30.5625 -49.078125 L 28.9375 -49.078125 Z M 26.5 -33.8125 "/></g></g><g style="fill:#ffffff;fill-opacity:1;"><g transform="translate(170.589718, 204.81926)"><path style="stroke:none" d="M 52.421875 -61.28125 L 50.296875 -47.78125 L 37.140625 -47.78125 L 29.578125 0 L 13.65625 0 L 21.203125 -47.78125 L 8.046875 -47.78125 L 10.15625 -61.28125 Z M 52.421875 -61.28125 "/></g></g><g style="fill:#000000;fill-opacity:1;"><g transform="translate(196.323479, 204.81926)"><path style="stroke:none" d="M 34.292969 -63.441406 L 57.535156 -25.976562 L 54.039062 -23.808594 L 54.039062 -27.921875 L 54.203125 -27.921875 L 54.203125 -23.808594 L 50.136719 -24.453125 L 56.621094 -65.386719 L 80.875 -65.386719 L 69.90625 4.113281 L 48.171875 4.113281 L 23.722656 -35.378906 L 27.222656 -37.542969 L 27.222656 -33.429688 L 27.058594 -33.429688 L 27.058594 -37.542969 L 31.125 -36.902344 L 24.644531 4.113281 L 0.386719 4.113281 L 11.355469 -65.386719 L 33.085938 -65.386719 Z M 27.300781 -59.101562 L 30.796875 -61.269531 L 30.796875 -57.15625 L 14.871094 -57.15625 L 14.871094 -61.269531 L 18.933594 -60.628906 L 9.265625 0.640625 L 5.199219 0 L 5.199219 -4.113281 L 21.128906 -4.113281 L 21.128906 0 L 17.0625 -0.640625 L 23.546875 -41.65625 L 29.515625 -41.65625 L 53.960938 -2.164062 L 50.464844 0 L 50.464844 -4.113281 L 66.390625 -4.113281 L 66.390625 0 L 62.328125 -0.640625 L 71.996094 -61.914062 L 76.0625 -61.269531 L 76.0625 -57.15625 L 60.132812 -57.15625 L 60.132812 -61.269531 L 64.195312 -60.628906 L 57.714844 -19.695312 L 51.75 -19.695312 Z M 27.300781 -59.101562 "/></g></g><g style="fill:#000000;fill-opacity:1;"><g transform="translate(259.29783, 204.81926)"><path style="stroke:none" d="M 53.796875 -60.632812 L 51.140625 -43.667969 L 28.683594 -43.667969 L 28.683594 -47.78125 L 32.75 -47.136719 L 31.125 -36.898438 L 27.058594 -37.542969 L 27.058594 -41.65625 L 49.828125 -41.65625 L 46.425781 -19.9375 L 24.945312 -19.9375 L 24.945312 -24.054688 L 29.007812 -23.398438 L 27.300781 -12.832031 L 23.242188 -13.488281 L 23.242188 -17.601562 L 46.984375 -17.601562 L 43.582031 4.113281 L 0.386719 4.113281 L 11.355469 -65.386719 L 54.539062 -65.386719 Z M 45.667969 -61.90625 L 49.730469 -61.269531 L 49.730469 -57.15625 L 14.871094 -57.15625 L 14.871094 -61.269531 L 18.933594 -60.628906 L 9.265625 0.640625 L 5.199219 0 L 5.199219 -4.113281 L 40.0625 -4.113281 L 40.0625 0 L 35.996094 -0.636719 L 38.109375 -14.125 L 42.175781 -13.488281 L 42.175781 -9.375 L 18.410156 -9.375 L 21.445312 -28.167969 L 42.90625 -28.167969 L 42.90625 -24.054688 L 38.839844 -24.691406 L 40.953125 -38.179688 L 45.019531 -37.542969 L 45.019531 -33.429688 L 22.242188 -33.429688 L 25.171875 -51.894531 L 47.617188 -51.894531 L 47.617188 -47.78125 L 43.554688 -48.417969 Z M 45.667969 -61.90625 "/></g></g><g style="fill:#000000;fill-opacity:1;"><g transform="translate(295.375678, 204.81926)"><path style="stroke:none" d="M 39.085938 -65.386719 C 45.554688 -65.386719 50.828125 -63.792969 54.902344 -60.613281 C 57.109375 -58.894531 58.765625 -56.785156 59.878906 -54.292969 C 60.949219 -51.890625 61.484375 -49.179688 61.484375 -46.15625 C 61.484375 -40.015625 59.652344 -34.585938 55.988281 -29.863281 C 52.257812 -25.046875 47.460938 -22.113281 41.601562 -21.0625 L 40.875 -25.109375 L 44.390625 -27.25 L 63.46875 4.113281 L 33.734375 4.113281 L 21.320312 -21.789062 L 25.027344 -23.566406 L 25.027344 -19.453125 L 24.867188 -19.453125 L 24.867188 -23.566406 L 28.929688 -22.921875 L 24.640625 4.113281 L 0.386719 4.113281 L 11.355469 -65.386719 Z M 39.085938 -57.15625 L 14.871094 -57.15625 L 14.871094 -61.269531 L 18.933594 -60.628906 L 9.265625 0.640625 L 5.199219 0 L 5.199219 -4.113281 L 21.128906 -4.113281 L 21.128906 0 L 17.066406 -0.644531 L 21.351562 -27.679688 L 27.617188 -27.679688 L 40.035156 -1.777344 L 36.324219 0 L 36.324219 -4.113281 L 56.152344 -4.113281 L 56.152344 0 L 52.636719 2.136719 L 34.242188 -28.097656 L 40.148438 -29.160156 C 43.929688 -29.839844 47.046875 -31.753906 49.488281 -34.902344 C 52 -38.144531 53.257812 -41.894531 53.257812 -46.15625 C 53.257812 -48.011719 52.957031 -49.605469 52.363281 -50.941406 C 51.808594 -52.1875 50.96875 -53.246094 49.839844 -54.128906 C 47.253906 -56.148438 43.667969 -57.15625 39.085938 -57.15625 Z M 26.492188 -37.917969 L 28.683594 -37.917969 C 31.496094 -37.917969 33.5625 -38.421875 34.882812 -39.433594 C 35.359375 -39.792969 35.710938 -40.230469 35.941406 -40.746094 C 36.214844 -41.363281 36.355469 -42.136719 36.355469 -43.070312 C 36.355469 -43.367188 36.316406 -43.582031 36.242188 -43.71875 C 36.183594 -43.828125 36.054688 -43.941406 35.855469 -44.0625 C 34.859375 -44.664062 33.09375 -44.96875 30.554688 -44.96875 L 28.929688 -44.96875 L 28.929688 -49.082031 L 32.992188 -48.433594 L 30.554688 -33.15625 L 26.492188 -33.804688 Z M 21.667969 -29.691406 L 25.417969 -53.195312 L 30.554688 -53.195312 C 34.625 -53.195312 37.816406 -52.496094 40.125 -51.097656 C 41.578125 -50.214844 42.6875 -49.074219 43.453125 -47.679688 C 44.207031 -46.3125 44.582031 -44.773438 44.582031 -43.070312 C 44.582031 -40.964844 44.207031 -39.074219 43.453125 -37.386719 C 42.652344 -35.597656 41.460938 -34.101562 39.875 -32.890625 C 37.082031 -30.757812 33.351562 -29.691406 28.683594 -29.691406 Z M 21.667969 -29.691406 "/></g></g><g style="fill:#ffffff;fill-opacity:1;"><g transform="translate(196.323479, 204.81926)"><path style="stroke:none" d="M 30.796875 -61.28125 L 54.046875 -23.8125 L 54.203125 -23.8125 L 60.140625 -61.28125 L 76.0625 -61.28125 L 66.390625 0 L 50.46875 0 L 27.21875 -37.546875 L 27.0625 -37.546875 L 21.125 0 L 5.203125 0 L 14.875 -61.28125 Z M 30.796875 -61.28125 "/></g></g><g style="fill:#ffffff;fill-opacity:1;"><g transform="translate(259.29783, 204.81926)"><path style="stroke:none" d="M 49.734375 -61.28125 L 47.625 -47.78125 L 28.6875 -47.78125 L 27.0625 -37.546875 L 45.015625 -37.546875 L 42.90625 -24.046875 L 24.953125 -24.046875 L 23.234375 -13.484375 L 42.171875 -13.484375 L 40.0625 0 L 5.203125 0 L 14.875 -61.28125 Z M 49.734375 -61.28125 "/></g></g><g style="fill:#ffffff;fill-opacity:1;"><g transform="translate(295.375678, 204.81926)"><path style="stroke:none" d="M 39.09375 -61.28125 C 44.613281 -61.28125 49.039062 -59.976562 52.375 -57.375 C 55.707031 -54.769531 57.375 -51.03125 57.375 -46.15625 C 57.375 -40.957031 55.828125 -36.363281 52.734375 -32.375 C 49.648438 -28.394531 45.695312 -25.972656 40.875 -25.109375 L 56.15625 0 L 36.328125 0 L 25.03125 -23.5625 L 24.875 -23.5625 L 21.125 0 L 5.203125 0 L 14.875 -61.28125 Z M 26.5 -33.8125 L 28.6875 -33.8125 C 32.425781 -33.8125 35.320312 -34.59375 37.375 -36.15625 C 39.4375 -37.726562 40.46875 -40.035156 40.46875 -43.078125 C 40.46875 -47.078125 37.164062 -49.078125 30.5625 -49.078125 L 28.9375 -49.078125 Z M 26.5 -33.8125 "/></g></g><g style="fill:#ffffff;fill-opacity:1;"><g transform="translate(3.598395, 275.372185)"><path style="stroke:none" d="M 4.15625 -19.3125 L 4.15625 0 L 2 0 L 2 -19.3125 Z M 4.15625 -19.3125 "/></g></g><g style="fill:#ffffff;fill-opacity:1;"><g transform="translate(9.716241, 275.372185)"><path style="stroke:none" d="M 2.078125 -20.125 L 17.125 -4.359375 L 17.125 -19.3125 L 19.28125 -19.3125 L 19.28125 0.875 L 4.21875 -14.875 L 4.21875 0 L 2.078125 0 Z M 2.078125 -20.125 "/></g></g><g style="fill:#ffffff;fill-opacity:1;"><g transform="translate(31.064686, 275.372185)"><path style="stroke:none" d="M 2.078125 -20.125 L 17.125 -4.359375 L 17.125 -19.3125 L 19.28125 -19.3125 L 19.28125 0.875 L 4.21875 -14.875 L 4.21875 0 L 2.078125 0 Z M 2.078125 -20.125 "/></g></g><g style="fill:#ffffff;fill-opacity:1;"><g transform="translate(52.413131, 275.372185)"><path style="stroke:none" d="M 0.96875 -9.625 C 0.96875 -11.40625 1.414062 -13.0625 2.3125 -14.59375 C 3.207031 -16.132812 4.429688 -17.359375 5.984375 -18.265625 C 7.546875 -19.179688 9.226562 -19.640625 11.03125 -19.640625 C 12.832031 -19.640625 14.503906 -19.195312 16.046875 -18.3125 C 17.585938 -17.425781 18.816406 -16.203125 19.734375 -14.640625 C 20.648438 -13.085938 21.109375 -11.414062 21.109375 -9.625 C 21.109375 -7.851562 20.65625 -6.195312 19.75 -4.65625 C 18.851562 -3.125 17.632812 -1.910156 16.09375 -1.015625 C 14.550781 -0.117188 12.863281 0.328125 11.03125 0.328125 C 9.238281 0.328125 7.566406 -0.113281 6.015625 -1 C 4.460938 -1.882812 3.234375 -3.097656 2.328125 -4.640625 C 1.421875 -6.191406 0.96875 -7.851562 0.96875 -9.625 Z M 11.015625 -17.640625 C 9.578125 -17.640625 8.25 -17.269531 7.03125 -16.53125 C 5.820312 -15.800781 4.867188 -14.828125 4.171875 -13.609375 C 3.472656 -12.390625 3.125 -11.070312 3.125 -9.65625 C 3.125 -8.238281 3.484375 -6.914062 4.203125 -5.6875 C 4.921875 -4.457031 5.890625 -3.476562 7.109375 -2.75 C 8.328125 -2.03125 9.632812 -1.671875 11.03125 -1.671875 C 12.445312 -1.671875 13.773438 -2.035156 15.015625 -2.765625 C 16.253906 -3.492188 17.21875 -4.472656 17.90625 -5.703125 C 18.601562 -6.941406 18.953125 -8.257812 18.953125 -9.65625 C 18.953125 -11.09375 18.597656 -12.425781 17.890625 -13.65625 C 17.179688 -14.894531 16.210938 -15.867188 14.984375 -16.578125 C 13.765625 -17.285156 12.441406 -17.640625 11.015625 -17.640625 Z M 11.015625 -17.640625 "/></g></g><g style="fill:#ffffff;fill-opacity:1;"><g transform="translate(74.478306, 275.372185)"><path style="stroke:none" d="M 2.484375 -19.3125 L 7.984375 -4.578125 L 13.5 -19.3125 L 15.828125 -19.3125 L 7.984375 1.15625 L 0.15625 -19.3125 Z M 2.6875 0 Z M 2.6875 0 "/></g></g><g style="fill:#ffffff;fill-opacity:1;"><g transform="translate(90.451249, 275.372185)"><path style="stroke:none" d="M 9.0625 -20.234375 L 17.75 0 L 15.359375 0 L 13.09375 -5.484375 L 4.84375 -5.484375 L 2.515625 0 L 0.15625 0 Z M 5.703125 -7.484375 L 12.234375 -7.484375 L 9.015625 -15.21875 Z M 3.484375 -19.3125 Z M 3.484375 -19.3125 "/></g></g><g style="fill:#ffffff;fill-opacity:1;"><g transform="translate(108.34402, 275.372185)"><path style="stroke:none" d="M 11.78125 -19.3125 L 11.78125 -17.3125 L 7.0625 -17.3125 L 7.0625 0 L 4.921875 0 L 4.921875 -17.3125 L 0.25 -17.3125 L 0.25 -19.3125 Z M 11.78125 -19.3125 "/></g></g><g style="fill:#ffffff;fill-opacity:1;"><g transform="translate(120.374925, 275.372185)"><path style="stroke:none" d="M 4.15625 -19.3125 L 4.15625 0 L 2 0 L 2 -19.3125 Z M 4.15625 -19.3125 "/></g></g><g style="fill:#ffffff;fill-opacity:1;"><g transform="translate(126.492772, 275.372185)"><path style="stroke:none" d="M 0.96875 -9.625 C 0.96875 -11.40625 1.414062 -13.0625 2.3125 -14.59375 C 3.207031 -16.132812 4.429688 -17.359375 5.984375 -18.265625 C 7.546875 -19.179688 9.226562 -19.640625 11.03125 -19.640625 C 12.832031 -19.640625 14.503906 -19.195312 16.046875 -18.3125 C 17.585938 -17.425781 18.816406 -16.203125 19.734375 -14.640625 C 20.648438 -13.085938 21.109375 -11.414062 21.109375 -9.625 C 21.109375 -7.851562 20.65625 -6.195312 19.75 -4.65625 C 18.851562 -3.125 17.632812 -1.910156 16.09375 -1.015625 C 14.550781 -0.117188 12.863281 0.328125 11.03125 0.328125 C 9.238281 0.328125 7.566406 -0.113281 6.015625 -1 C 4.460938 -1.882812 3.234375 -3.097656 2.328125 -4.640625 C 1.421875 -6.191406 0.96875 -7.851562 0.96875 -9.625 Z M 11.015625 -17.640625 C 9.578125 -17.640625 8.25 -17.269531 7.03125 -16.53125 C 5.820312 -15.800781 4.867188 -14.828125 4.171875 -13.609375 C 3.472656 -12.390625 3.125 -11.070312 3.125 -9.65625 C 3.125 -8.238281 3.484375 -6.914062 4.203125 -5.6875 C 4.921875 -4.457031 5.890625 -3.476562 7.109375 -2.75 C 8.328125 -2.03125 9.632812 -1.671875 11.03125 -1.671875 C 12.445312 -1.671875 13.773438 -2.035156 15.015625 -2.765625 C 16.253906 -3.492188 17.21875 -4.472656 17.90625 -5.703125 C 18.601562 -6.941406 18.953125 -8.257812 18.953125 -9.65625 C 18.953125 -11.09375 18.597656 -12.425781 17.890625 -13.65625 C 17.179688 -14.894531 16.210938 -15.867188 14.984375 -16.578125 C 13.765625 -17.285156 12.441406 -17.640625 11.015625 -17.640625 Z M 11.015625 -17.640625 "/></g></g><g style="fill:#ffffff;fill-opacity:1;"><g transform="translate(148.557946, 275.372185)"><path style="stroke:none" d="M 2.078125 -20.125 L 17.125 -4.359375 L 17.125 -19.3125 L 19.28125 -19.3125 L 19.28125 0.875 L 4.21875 -14.875 L 4.21875 0 L 2.078125 0 Z M 2.078125 -20.125 "/></g></g><g style="fill:#ffffff;fill-opacity:1;"><g transform="translate(169.906391, 275.372185)"><path style="stroke:none" d=""/></g></g><g style="fill:#ffffff;fill-opacity:1;"><g transform="translate(177.790469, 275.372185)"><path style="stroke:none" d="M 11.78125 -19.3125 L 11.78125 -17.3125 L 7.0625 -17.3125 L 7.0625 0 L 4.921875 0 L 4.921875 -17.3125 L 0.25 -17.3125 L 0.25 -19.3125 Z M 11.78125 -19.3125 "/></g></g><g style="fill:#ffffff;fill-opacity:1;"><g transform="translate(189.821373, 275.372185)"><path style="stroke:none" d="M 11.953125 -19.3125 L 11.953125 -17.3125 L 4.09375 -17.3125 L 4.09375 -11.578125 L 11.734375 -11.578125 L 11.734375 -9.578125 L 4.09375 -9.578125 L 4.09375 -2 L 11.953125 -2 L 11.953125 0 L 1.953125 0 L 1.953125 -19.3125 Z M 11.953125 -19.3125 "/></g></g><g style="fill:#ffffff;fill-opacity:1;"><g transform="translate(203.490529, 275.372185)"><path style="stroke:none" d="M 16.671875 -15.078125 C 15.847656 -15.898438 14.925781 -16.53125 13.90625 -16.96875 C 12.894531 -17.414062 11.851562 -17.640625 10.78125 -17.640625 C 9.414062 -17.640625 8.125 -17.269531 6.90625 -16.53125 C 5.695312 -15.800781 4.742188 -14.820312 4.046875 -13.59375 C 3.347656 -12.363281 3 -11.050781 3 -9.65625 C 3 -8.289062 3.351562 -6.984375 4.0625 -5.734375 C 4.769531 -4.484375 5.726562 -3.492188 6.9375 -2.765625 C 8.15625 -2.035156 9.453125 -1.671875 10.828125 -1.671875 C 11.867188 -1.671875 12.894531 -1.890625 13.90625 -2.328125 C 14.925781 -2.773438 15.847656 -3.40625 16.671875 -4.21875 L 16.671875 -1.5625 C 15.847656 -0.96875 14.9375 -0.503906 13.9375 -0.171875 C 12.945312 0.160156 11.9375 0.328125 10.90625 0.328125 C 9.195312 0.328125 7.5625 -0.0976562 6 -0.953125 C 4.4375 -1.804688 3.1875 -3 2.25 -4.53125 C 1.3125 -6.070312 0.84375 -7.753906 0.84375 -9.578125 C 0.84375 -11.390625 1.296875 -13.066406 2.203125 -14.609375 C 3.109375 -16.148438 4.34375 -17.375 5.90625 -18.28125 C 7.46875 -19.1875 9.132812 -19.640625 10.90625 -19.640625 C 12 -19.640625 13.066406 -19.457031 14.109375 -19.09375 C 15.148438 -18.738281 16.003906 -18.289062 16.671875 -17.75 Z M 16.671875 -15.078125 "/></g></g><g style="fill:#ffffff;fill-opacity:1;"><g transform="translate(221.844049, 275.372185)"><path style="stroke:none" d="M 4.203125 -19.3125 L 4.203125 -11.46875 L 14.078125 -11.46875 L 14.078125 -19.3125 L 16.234375 -19.3125 L 16.234375 0 L 14.078125 0 L 14.078125 -9.46875 L 4.203125 -9.46875 L 4.203125 0 L 2.046875 0 L 2.046875 -19.3125 Z M 4.203125 -19.3125 "/></g></g><g style="fill:#ffffff;fill-opacity:1;"><g transform="translate(240.120782, 275.372185)"><path style="stroke:none" d="M 2.078125 -20.125 L 17.125 -4.359375 L 17.125 -19.3125 L 19.28125 -19.3125 L 19.28125 0.875 L 4.21875 -14.875 L 4.21875 0 L 2.078125 0 Z M 2.078125 -20.125 "/></g></g><g style="fill:#ffffff;fill-opacity:1;"><g transform="translate(261.469227, 275.372185)"><path style="stroke:none" d="M 0.96875 -9.625 C 0.96875 -11.40625 1.414062 -13.0625 2.3125 -14.59375 C 3.207031 -16.132812 4.429688 -17.359375 5.984375 -18.265625 C 7.546875 -19.179688 9.226562 -19.640625 11.03125 -19.640625 C 12.832031 -19.640625 14.503906 -19.195312 16.046875 -18.3125 C 17.585938 -17.425781 18.816406 -16.203125 19.734375 -14.640625 C 20.648438 -13.085938 21.109375 -11.414062 21.109375 -9.625 C 21.109375 -7.851562 20.65625 -6.195312 19.75 -4.65625 C 18.851562 -3.125 17.632812 -1.910156 16.09375 -1.015625 C 14.550781 -0.117188 12.863281 0.328125 11.03125 0.328125 C 9.238281 0.328125 7.566406 -0.113281 6.015625 -1 C 4.460938 -1.882812 3.234375 -3.097656 2.328125 -4.640625 C 1.421875 -6.191406 0.96875 -7.851562 0.96875 -9.625 Z M 11.015625 -17.640625 C 9.578125 -17.640625 8.25 -17.269531 7.03125 -16.53125 C 5.820312 -15.800781 4.867188 -14.828125 4.171875 -13.609375 C 3.472656 -12.390625 3.125 -11.070312 3.125 -9.65625 C 3.125 -8.238281 3.484375 -6.914062 4.203125 -5.6875 C 4.921875 -4.457031 5.890625 -3.476562 7.109375 -2.75 C 8.328125 -2.03125 9.632812 -1.671875 11.03125 -1.671875 C 12.445312 -1.671875 13.773438 -2.035156 15.015625 -2.765625 C 16.253906 -3.492188 17.21875 -4.472656 17.90625 -5.703125 C 18.601562 -6.941406 18.953125 -8.257812 18.953125 -9.65625 C 18.953125 -11.09375 18.597656 -12.425781 17.890625 -13.65625 C 17.179688 -14.894531 16.210938 -15.867188 14.984375 -16.578125 C 13.765625 -17.285156 12.441406 -17.640625 11.015625 -17.640625 Z M 11.015625 -17.640625 "/></g></g><g style="fill:#ffffff;fill-opacity:1;"><g transform="translate(283.534401, 275.372185)"><path style="stroke:none" d="M 4.09375 -19.3125 L 4.09375 -2 L 9.421875 -2 L 9.421875 0 L 1.953125 0 L 1.953125 -19.3125 Z M 4.09375 -19.3125 "/></g></g><g style="fill:#ffffff;fill-opacity:1;"><g transform="translate(293.133517, 275.372185)"><path style="stroke:none" d="M 0.96875 -9.625 C 0.96875 -11.40625 1.414062 -13.0625 2.3125 -14.59375 C 3.207031 -16.132812 4.429688 -17.359375 5.984375 -18.265625 C 7.546875 -19.179688 9.226562 -19.640625 11.03125 -19.640625 C 12.832031 -19.640625 14.503906 -19.195312 16.046875 -18.3125 C 17.585938 -17.425781 18.816406 -16.203125 19.734375 -14.640625 C 20.648438 -13.085938 21.109375 -11.414062 21.109375 -9.625 C 21.109375 -7.851562 20.65625 -6.195312 19.75 -4.65625 C 18.851562 -3.125 17.632812 -1.910156 16.09375 -1.015625 C 14.550781 -0.117188 12.863281 0.328125 11.03125 0.328125 C 9.238281 0.328125 7.566406 -0.113281 6.015625 -1 C 4.460938 -1.882812 3.234375 -3.097656 2.328125 -4.640625 C 1.421875 -6.191406 0.96875 -7.851562 0.96875 -9.625 Z M 11.015625 -17.640625 C 9.578125 -17.640625 8.25 -17.269531 7.03125 -16.53125 C 5.820312 -15.800781 4.867188 -14.828125 4.171875 -13.609375 C 3.472656 -12.390625 3.125 -11.070312 3.125 -9.65625 C 3.125 -8.238281 3.484375 -6.914062 4.203125 -5.6875 C 4.921875 -4.457031 5.890625 -3.476562 7.109375 -2.75 C 8.328125 -2.03125 9.632812 -1.671875 11.03125 -1.671875 C 12.445312 -1.671875 13.773438 -2.035156 15.015625 -2.765625 C 16.253906 -3.492188 17.21875 -4.472656 17.90625 -5.703125 C 18.601562 -6.941406 18.953125 -8.257812 18.953125 -9.65625 C 18.953125 -11.09375 18.597656 -12.425781 17.890625 -13.65625 C 17.179688 -14.894531 16.210938 -15.867188 14.984375 -16.578125 C 13.765625 -17.285156 12.441406 -17.640625 11.015625 -17.640625 Z M 11.015625 -17.640625 "/></g></g><g style="fill:#ffffff;fill-opacity:1;"><g transform="translate(315.198692, 275.372185)"><path style="stroke:none" d="M 17.484375 -14.015625 C 16.671875 -15.171875 15.71875 -16.0625 14.625 -16.6875 C 13.53125 -17.320312 12.273438 -17.640625 10.859375 -17.640625 C 9.460938 -17.640625 8.148438 -17.269531 6.921875 -16.53125 C 5.703125 -15.800781 4.738281 -14.816406 4.03125 -13.578125 C 3.320312 -12.347656 2.96875 -11.015625 2.96875 -9.578125 C 2.96875 -8.140625 3.347656 -6.804688 4.109375 -5.578125 C 4.867188 -4.347656 5.84375 -3.390625 7.03125 -2.703125 C 8.226562 -2.015625 9.453125 -1.671875 10.703125 -1.671875 C 11.867188 -1.671875 12.976562 -1.929688 14.03125 -2.453125 C 15.09375 -2.984375 15.953125 -3.707031 16.609375 -4.625 C 17.265625 -5.550781 17.59375 -6.578125 17.59375 -7.703125 L 11.859375 -7.703125 L 11.859375 -9.703125 L 19.90625 -9.703125 L 19.90625 -8.609375 C 19.90625 -7.335938 19.691406 -6.164062 19.265625 -5.09375 C 18.835938 -4.019531 18.175781 -3.070312 17.28125 -2.25 C 16.394531 -1.4375 15.390625 -0.800781 14.265625 -0.34375 C 13.140625 0.101562 11.96875 0.328125 10.75 0.328125 C 9 0.328125 7.351562 -0.113281 5.8125 -1 C 4.28125 -1.882812 3.0625 -3.097656 2.15625 -4.640625 C 1.257812 -6.191406 0.8125 -7.847656 0.8125 -9.609375 C 0.8125 -11.398438 1.269531 -13.070312 2.1875 -14.625 C 3.101562 -16.175781 4.34375 -17.398438 5.90625 -18.296875 C 7.46875 -19.191406 9.128906 -19.640625 10.890625 -19.640625 C 12.578125 -19.640625 14.097656 -19.28125 15.453125 -18.5625 C 16.804688 -17.84375 18.003906 -16.8125 19.046875 -15.46875 Z M 17.484375 -14.015625 "/></g></g><g style="fill:#ffffff;fill-opacity:1;"><g transform="translate(336.188751, 275.372185)"><path style="stroke:none" d="M 4.15625 -19.3125 L 4.15625 0 L 2 0 L 2 -19.3125 Z M 4.15625 -19.3125 "/></g></g><g style="fill:#ffffff;fill-opacity:1;"><g transform="translate(342.306617, 275.372185)"><path style="stroke:none" d="M 11.953125 -19.3125 L 11.953125 -17.3125 L 4.09375 -17.3125 L 4.09375 -11.578125 L 11.734375 -11.578125 L 11.734375 -9.578125 L 4.09375 -9.578125 L 4.09375 -2 L 11.953125 -2 L 11.953125 0 L 1.953125 0 L 1.953125 -19.3125 Z M 11.953125 -19.3125 "/></g></g><g style="fill:#ffffff;fill-opacity:1;"><g transform="translate(355.975772, 275.372185)"><path style="stroke:none" d="M 10.703125 -15.546875 C 10.273438 -16.296875 9.800781 -16.832031 9.28125 -17.15625 C 8.757812 -17.476562 8.132812 -17.640625 7.40625 -17.640625 C 6.46875 -17.640625 5.691406 -17.347656 5.078125 -16.765625 C 4.472656 -16.191406 4.171875 -15.488281 4.171875 -14.65625 C 4.171875 -14 4.421875 -13.441406 4.921875 -12.984375 C 5.429688 -12.523438 6.046875 -12.128906 6.765625 -11.796875 C 7.484375 -11.472656 8.128906 -11.191406 8.703125 -10.953125 C 9.285156 -10.722656 9.957031 -10.367188 10.71875 -9.890625 C 11.488281 -9.410156 12.078125 -8.8125 12.484375 -8.09375 C 12.898438 -7.375 13.109375 -6.554688 13.109375 -5.640625 C 13.109375 -4.578125 12.84375 -3.582031 12.3125 -2.65625 C 11.789062 -1.738281 11.054688 -1.007812 10.109375 -0.46875 C 9.171875 0.0625 8.148438 0.328125 7.046875 0.328125 C 5.523438 0.328125 4.222656 -0.117188 3.140625 -1.015625 C 2.054688 -1.910156 1.351562 -3.125 1.03125 -4.65625 L 3.125 -5.25 C 3.289062 -4.1875 3.726562 -3.320312 4.4375 -2.65625 C 5.144531 -2 5.992188 -1.671875 6.984375 -1.671875 C 8.066406 -1.671875 9 -2.035156 9.78125 -2.765625 C 10.5625 -3.492188 10.953125 -4.378906 10.953125 -5.421875 C 10.953125 -6.347656 10.65625 -7.101562 10.0625 -7.6875 C 9.46875 -8.28125 8.375 -8.890625 6.78125 -9.515625 C 5.195312 -10.148438 4.003906 -10.859375 3.203125 -11.640625 C 2.410156 -12.429688 2.015625 -13.457031 2.015625 -14.71875 C 2.015625 -16.15625 2.546875 -17.332031 3.609375 -18.25 C 4.671875 -19.175781 5.941406 -19.640625 7.421875 -19.640625 C 8.515625 -19.640625 9.484375 -19.382812 10.328125 -18.875 C 11.171875 -18.363281 11.867188 -17.617188 12.421875 -16.640625 Z M 10.703125 -15.546875 "/></g></g></g></svg>